<!-- Generator: Adobe Illustrator 18.0.0, SVG Export Plug-In  -->
<svg version="1.1"
	 xmlns="http://www.w3.org/2000/svg" xmlns:xlink="http://www.w3.org/1999/xlink" xmlns:a="http://ns.adobe.com/AdobeSVGViewerExtensions/3.0/"
	 x="0px" y="0px" width="215.9px" height="35.6px" viewBox="0 0 215.9 35.6" enable-background="new 0 0 215.9 35.6"
	 xml:space="preserve">
<defs>
</defs>
<g>
	<g>
		<path fill="#FFFFFF" d="M6.9,23.7c-0.3,0-0.6,0-0.9,0s-0.5,0-0.7,0c-0.1,0-0.2,0-0.3,0.1S4.8,24,4.8,24.1l-0.4,1.4
			c0,0.1,0,0.2,0,0.3c0,0,0.1,0.1,0.2,0.1h4.2c0.1,0,0.2,0,0.3,0.1s0.1,0.1,0.1,0.3c0,0.1,0,0.2-0.1,0.3c-0.1,0.1-0.1,0.3-0.2,0.4
			c-0.1,0.1-0.2,0.3-0.3,0.4c-0.1,0.1-0.2,0.2-0.3,0.3c-0.1,0.1-0.3,0.1-0.4,0.2c-0.2,0-0.4,0-0.6,0H4.1c-0.1,0-0.2,0-0.3,0.1
			S3.7,27.9,3.6,28l-0.4,1.4c-0.1,0.2,0,0.4,0.2,0.4c0.2,0,0.3,0,0.5,0c0.2,0,0.5,0,0.9,0c0.8,0,1.5,0,2,0c0.5,0,0.9,0,1.3-0.1
			c0.1,0,0.2,0,0.3,0.1c0.1,0.1,0.1,0.2,0,0.3c0,0.1-0.1,0.3-0.2,0.4C8.2,30.7,8.1,30.9,8,31c-0.1,0.2-0.2,0.3-0.4,0.4
			c-0.1,0.1-0.2,0.2-0.4,0.2c-0.1,0.1-0.2,0.1-0.4,0.1c-0.1,0-0.4,0-0.6,0.1c-0.3,0-0.6,0-0.9,0c-0.4,0-0.8,0-1.4,0
			c-0.8,0-1.5,0-2.2,0c-0.6,0-1.2,0-1.7,0c-0.1,0-0.1,0-0.2-0.1S0,31.6,0,31.4l2.7-9.3c0-0.1,0.1-0.2,0.2-0.3c0.1,0,0.2-0.1,0.2-0.1
			c0.3,0,0.6,0,0.8,0c0.3,0,0.5,0,0.8,0c0.3,0,0.5,0,0.8,0s0.6,0,1,0c1,0,1.8,0,2.2,0c0.5,0,0.8,0.1,0.9,0.1c0.1,0,0.1,0.1,0.2,0.3
			s0.1,0.3,0.2,0.4c0,0.2,0.1,0.3,0.1,0.5s0,0.3,0,0.5c0,0.1-0.1,0.2-0.1,0.3c-0.1,0.1-0.2,0.1-0.3,0.1c-0.4,0-0.8,0-1.3,0
			C8,23.7,7.4,23.7,6.9,23.7z"/>
		<path fill="#FFFFFF" d="M17.2,31.6c0,0.1-0.1,0.2-0.1,0.2c-0.1,0-0.1,0.1-0.2,0.1h-2c-0.1,0-0.2,0-0.2-0.1c0-0.1,0-0.2,0-0.3
			l1.1-3.9c0.1-0.3,0.2-0.6,0.2-0.8c0-0.2,0-0.3,0-0.4c-0.1-0.1-0.2-0.2-0.3-0.2C15.5,26,15.2,26,15,26c-0.2,0-0.4,0-0.6,0
			c-0.2,0-0.3,0-0.5,0.1c-0.1,0-0.2,0.1-0.3,0.1c-0.1,0.1-0.1,0.2-0.1,0.4l-1.5,5c-0.1,0.2-0.2,0.3-0.3,0.3H9.6
			c-0.1,0-0.1,0-0.2-0.1c0,0,0-0.1,0-0.2l2.1-7.1c0.1-0.2,0.2-0.3,0.4-0.3c0.5-0.1,1.1-0.1,1.6-0.2c0.6,0,1.2-0.1,1.9-0.1
			c0.5,0,0.9,0,1.3,0.1s0.6,0.1,0.9,0.2c0.2,0.1,0.4,0.2,0.6,0.2c0.2,0.1,0.3,0.2,0.4,0.3c0.2,0.2,0.3,0.5,0.2,1s-0.1,0.9-0.3,1.6
			L17.2,31.6z"/>
		<path fill="#FFFFFF" d="M25.3,23.9c0.7,0,1.3,0,1.8,0.1c0.5,0,1,0.1,1.3,0.1c0.1,0,0.1,0,0.2,0.1c0,0.1,0,0.1,0,0.2
			c-0.3,1.1-0.6,2-1,2.7s-0.8,1.3-1.2,1.6c-0.3,0.2-0.7,0.4-1.2,0.5s-1.2,0.2-2.1,0.2c-0.4,0-0.7,0-0.9,0c-0.2,0-0.3,0-0.3,0.1
			c-0.1,0-0.1,0.1-0.2,0.3c-0.1,0.1-0.1,0.3-0.1,0.4c-0.1,0.2,0,0.2,0.1,0.2c0.1,0,0.4,0,0.7,0c0.3,0,0.7,0,1.1,0
			c0.8,0,1.5,0,1.9,0.1c0.4,0.1,0.7,0.2,0.9,0.3c0.1,0.1,0.2,0.4,0.3,0.7s0,0.8-0.2,1.3c-0.1,0.4-0.3,0.8-0.5,1.2
			c-0.2,0.4-0.5,0.7-0.8,0.9c-0.3,0.2-0.8,0.4-1.4,0.5c-0.6,0.1-1.4,0.2-2.3,0.2c-0.8,0-1.4,0-1.8-0.1c-0.4-0.1-0.7-0.2-0.9-0.3
			c-0.1-0.1-0.1-0.1-0.2-0.3c-0.1-0.1-0.1-0.2-0.1-0.4c0-0.1-0.1-0.3-0.1-0.4c0-0.1,0-0.2,0-0.3c0-0.1,0.1-0.2,0.1-0.2
			c0.1-0.1,0.2-0.1,0.2-0.1c0.4,0,0.8,0.1,1.2,0.1s1,0.1,1.5,0.1c0.7,0,1.2,0,1.5-0.1s0.5-0.1,0.6-0.2c0.2-0.1,0.3-0.3,0.4-0.6
			c0.1-0.2,0.1-0.4,0-0.5c0,0-0.1,0-0.1-0.1c-0.1,0-0.2,0-0.3,0c-0.1,0-0.3,0-0.6,0c-0.2,0-0.5,0-0.9,0c-0.5,0-1,0-1.5,0
			c-0.5,0-0.9,0-1.4,0c-0.2,0-0.3-0.1-0.2-0.4c0.1-0.2,0.1-0.4,0.2-0.6c0.1-0.2,0.2-0.5,0.2-0.7c0.1-0.2,0.2-0.4,0.2-0.6
			c0.1-0.2,0.1-0.3,0.1-0.4c0.1-0.3,0.2-0.7,0.2-1.2c0.1-0.5,0.2-1,0.3-1.5c0.1-0.5,0.3-1,0.5-1.4c0.2-0.4,0.5-0.7,0.8-0.9
			c0.2-0.1,0.3-0.2,0.5-0.3c0.2-0.1,0.4-0.1,0.7-0.2c0.3-0.1,0.6-0.1,1-0.1S24.8,23.9,25.3,23.9z M22.7,26.8
			c-0.1,0.2-0.1,0.4-0.1,0.6c0,0.2,0,0.3,0,0.3c0,0,0.1,0.1,0.2,0.1c0.1,0,0.3,0,0.5,0c0.4,0,0.7,0,1-0.1c0.2-0.1,0.4-0.1,0.5-0.2
			c0.1-0.1,0.3-0.2,0.4-0.5c0.2-0.2,0.3-0.5,0.4-0.9c0.1-0.2,0-0.3-0.1-0.3c-0.1,0-0.3,0-0.4,0c-0.2,0-0.3,0-0.5,0
			c-0.4,0-0.7,0-0.9,0.1c-0.2,0-0.4,0.1-0.5,0.2C23,26.2,22.8,26.4,22.7,26.8z"/>
		<path fill="#FFFFFF" d="M30.7,31.6c-0.1,0.2-0.2,0.3-0.4,0.3h-1.2c-0.5,0-0.8-0.1-0.9-0.3c-0.1-0.2-0.1-0.5,0.1-1l2.8-9.6
			c0-0.2,0.1-0.3,0.3-0.3h2.1c0.1,0,0.1,0,0.1,0.1c0,0,0,0.1,0,0.2L30.7,31.6z"/>
		<path fill="#FFFFFF" d="M35.2,31.6c0,0.2-0.2,0.3-0.3,0.3h-2.1c-0.1,0-0.2,0-0.2-0.1c0,0,0-0.1,0-0.2l2.1-7.3
			c0.1-0.2,0.2-0.3,0.4-0.3h2.1c0.1,0,0.2,0,0.2,0.1c0,0,0,0.1,0,0.2L35.2,31.6z M38.2,21.8c-0.1,0.2-0.1,0.4-0.3,0.6
			c-0.1,0.2-0.2,0.3-0.4,0.4c-0.1,0-0.2,0.1-0.3,0.1C37.2,23,37.1,23,37,23c-0.1,0-0.2,0-0.3,0s-0.2,0-0.3,0c-0.3,0-0.5,0-0.7-0.1
			c-0.2,0-0.3-0.1-0.4-0.2c-0.2-0.1-0.2-0.5,0-0.9c0-0.2,0.1-0.5,0.2-0.6c0.1-0.2,0.2-0.3,0.4-0.4c0.1,0,0.3-0.1,0.5-0.1
			c0.2,0,0.5-0.1,0.7-0.1c0.3,0,0.5,0,0.7,0.1c0.2,0,0.3,0.1,0.4,0.2c0.1,0.1,0.1,0.2,0.1,0.4C38.3,21.4,38.3,21.6,38.2,21.8z"/>
		<path fill="#FFFFFF" d="M42.6,23.9c1.2,0,1.9,0.1,2.2,0.3c0.1,0.1,0.3,0.3,0.4,0.5c0.1,0.2,0.1,0.5,0.1,0.8c0,0.1-0.1,0.2-0.1,0.3
			c-0.1,0.1-0.2,0.1-0.3,0.1c-0.2,0-0.6-0.1-0.9-0.1c-0.4,0-0.8,0-1.2,0c-0.9,0-1.4,0.1-1.6,0.2c-0.1,0.1-0.1,0.1-0.2,0.2
			s-0.1,0.2-0.2,0.3c0,0.1,0,0.2-0.1,0.3c0,0.1,0,0.1,0,0.2c0.1,0,0.2,0.1,0.4,0.1c0.2,0,0.4,0.1,0.6,0.1c0.2,0,0.5,0.1,0.8,0.1
			s0.5,0.1,0.8,0.1c0.2,0,0.5,0.1,0.6,0.2c0.2,0.1,0.3,0.1,0.4,0.2c0.1,0.1,0.2,0.3,0.2,0.6s0,0.7-0.2,1.3c-0.1,0.5-0.3,0.9-0.5,1.1
			c-0.2,0.3-0.4,0.5-0.7,0.7c-0.3,0.2-0.6,0.3-1.1,0.4C41.6,31.9,41,32,40.3,32c-0.4,0-0.8,0-1.1,0c-0.3,0-0.5,0-0.8-0.1
			c-0.2,0-0.4-0.1-0.5-0.1s-0.2-0.1-0.3-0.2c-0.1-0.1-0.3-0.3-0.3-0.6s-0.1-0.5-0.1-0.7c0-0.1,0.1-0.2,0.1-0.2
			c0.1-0.1,0.2-0.1,0.3-0.1c0.3,0,0.6,0.1,1,0.1c0.4,0,0.9,0.1,1.4,0.1c0.3,0,0.6,0,0.8-0.1c0.3,0,0.4-0.1,0.5-0.1
			c0.2-0.1,0.3-0.3,0.4-0.5c0-0.1,0-0.2,0.1-0.3s0-0.1,0-0.2c-0.1,0-0.2-0.1-0.4-0.1c-0.2,0-0.4-0.1-0.6-0.1c-0.2,0-0.5-0.1-0.8-0.1
			c-0.3,0-0.5-0.1-0.8-0.2c-0.2-0.1-0.5-0.1-0.6-0.2c-0.2-0.1-0.3-0.1-0.4-0.2c-0.1-0.1-0.1-0.3-0.1-0.6c0-0.3,0-0.6,0.1-1
			c0.1-0.5,0.3-0.9,0.5-1.2s0.4-0.6,0.7-0.8c0.3-0.2,0.7-0.4,1.2-0.5C41.2,24,41.8,23.9,42.6,23.9z"/>
		<path fill="#FFFFFF" d="M53.1,31.6c-0.1,0.2-0.2,0.3-0.4,0.3h-2c-0.1,0-0.2,0-0.2-0.1s0-0.2,0-0.3l1.1-3.9
			c0.1-0.4,0.2-0.7,0.2-0.9c0-0.2,0-0.3-0.1-0.4s-0.2-0.2-0.3-0.2c-0.1,0-0.4,0-0.6,0c-0.2,0-0.4,0-0.6,0c-0.2,0-0.4,0-0.5,0.1
			c-0.1,0-0.2,0.1-0.3,0.1s-0.1,0.2-0.2,0.4l-1.4,4.9c-0.1,0.2-0.2,0.3-0.3,0.3h-2.1c-0.1,0-0.1,0-0.2-0.1c0,0,0-0.1,0-0.2l3-10.5
			c0-0.2,0.1-0.3,0.3-0.3h2.1c0.1,0,0.1,0,0.2,0.1c0,0.1,0,0.1,0,0.2l-0.8,2.8c0,0.1,0,0.2,0,0.2c0,0.1,0.1,0.1,0.2,0.1
			c0.3,0,0.6-0.1,0.9-0.1c0.3,0,0.6-0.1,1-0.1c0.6,0,1.1,0.1,1.4,0.2c0.3,0.1,0.6,0.3,0.8,0.5c0.2,0.2,0.2,0.5,0.3,0.9
			c0,0.4-0.1,1-0.3,1.7L53.1,31.6z"/>
		<path fill="#FFFFFF" d="M69.2,27.2c-0.3,1-0.6,1.8-1,2.5c-0.4,0.7-0.9,1.2-1.3,1.5c-0.5,0.3-1,0.6-1.7,0.7S63.7,32,63,32
			c-0.9,0-1.7-0.1-2.2-0.3c-0.5-0.2-0.9-0.5-1.2-0.8c-0.3-0.3-0.4-0.9-0.4-1.7c0-0.8,0.1-1.7,0.5-2.8c0.3-0.9,0.6-1.8,1.1-2.4
			c0.4-0.7,0.9-1.2,1.4-1.5c0.4-0.3,0.9-0.5,1.5-0.7s1.3-0.3,2.2-0.3c0.9,0,1.6,0.1,2.2,0.3c0.5,0.2,0.9,0.4,1.2,0.8
			c0.1,0.2,0.2,0.4,0.3,0.6c0.1,0.3,0.1,0.6,0.1,0.9c0,0.4,0,0.8-0.1,1.3C69.5,25.9,69.3,26.5,69.2,27.2z M66.6,26.7
			c0.2-0.7,0.3-1.2,0.4-1.7s0-0.7-0.2-0.9c-0.1-0.2-0.3-0.3-0.5-0.3c-0.3-0.1-0.6-0.1-0.9-0.1c-0.4,0-0.7,0-1,0.1
			c-0.3,0.1-0.5,0.2-0.7,0.3c-0.2,0.1-0.4,0.4-0.7,0.9c-0.3,0.4-0.5,1-0.8,1.7c-0.2,0.7-0.3,1.3-0.3,1.7c0,0.4,0,0.7,0.1,0.9
			c0.1,0.1,0.3,0.3,0.5,0.3c0.3,0.1,0.6,0.1,0.9,0.1c0.4,0,0.8,0,1-0.1s0.5-0.2,0.7-0.3c0.2-0.1,0.5-0.4,0.7-0.9
			C66.1,28.1,66.3,27.5,66.6,26.7z"/>
		<path fill="#FFFFFF" d="M77.3,31.6c0,0.1-0.1,0.2-0.1,0.2c-0.1,0-0.1,0.1-0.2,0.1h-2c-0.1,0-0.2,0-0.2-0.1c0-0.1,0-0.2,0-0.3
			l1.1-3.9c0.1-0.3,0.2-0.6,0.2-0.8c0-0.2,0-0.3,0-0.4c-0.1-0.1-0.2-0.2-0.3-0.2c-0.2,0-0.4-0.1-0.7-0.1c-0.2,0-0.4,0-0.6,0
			c-0.2,0-0.3,0-0.5,0.1c-0.1,0-0.2,0.1-0.3,0.1c-0.1,0.1-0.1,0.2-0.1,0.4l-1.5,5c-0.1,0.2-0.2,0.3-0.3,0.3h-2.1
			c-0.1,0-0.1,0-0.2-0.1c0,0,0-0.1,0-0.2l2.1-7.1c0.1-0.2,0.2-0.3,0.4-0.3c0.5-0.1,1.1-0.1,1.6-0.2c0.6,0,1.2-0.1,1.9-0.1
			c0.5,0,0.9,0,1.3,0.1s0.6,0.1,0.9,0.2c0.2,0.1,0.4,0.2,0.6,0.2c0.2,0.1,0.3,0.2,0.4,0.3c0.2,0.2,0.3,0.5,0.2,1s-0.1,0.9-0.3,1.6
			L77.3,31.6z"/>
		<path fill="#FFFFFF" d="M81.8,31.6c-0.1,0.2-0.2,0.3-0.4,0.3h-1.2c-0.5,0-0.8-0.1-0.9-0.3c-0.1-0.2-0.1-0.5,0.1-1l2.8-9.6
			c0-0.2,0.1-0.3,0.3-0.3h2.1c0.1,0,0.1,0,0.1,0.1c0,0,0,0.1,0,0.2L81.8,31.6z"/>
		<path fill="#FFFFFF" d="M86.3,31.6c0,0.2-0.2,0.3-0.3,0.3h-2.1c-0.1,0-0.2,0-0.2-0.1c0,0,0-0.1,0-0.2l2.1-7.3
			c0.1-0.2,0.2-0.3,0.4-0.3h2.1c0.1,0,0.2,0,0.2,0.1c0,0,0,0.1,0,0.2L86.3,31.6z M89.3,21.8c-0.1,0.2-0.1,0.4-0.3,0.6
			c-0.1,0.2-0.2,0.3-0.4,0.4c-0.1,0-0.2,0.1-0.3,0.1c-0.1,0-0.2,0.1-0.3,0.1c-0.1,0-0.2,0-0.3,0s-0.2,0-0.3,0c-0.3,0-0.5,0-0.7-0.1
			c-0.2,0-0.3-0.1-0.4-0.2c-0.2-0.1-0.2-0.5,0-0.9c0-0.2,0.1-0.5,0.2-0.6c0.1-0.2,0.2-0.3,0.4-0.4c0.1,0,0.3-0.1,0.5-0.1
			c0.2,0,0.5-0.1,0.7-0.1c0.3,0,0.5,0,0.7,0.1c0.2,0,0.3,0.1,0.4,0.2c0.1,0.1,0.1,0.2,0.1,0.4C89.4,21.4,89.4,21.6,89.3,21.8z"/>
		<path fill="#FFFFFF" d="M96,31.6c0,0.1-0.1,0.2-0.1,0.2c-0.1,0-0.1,0.1-0.2,0.1h-2c-0.1,0-0.2,0-0.2-0.1c0-0.1,0-0.2,0-0.3
			l1.1-3.9c0.1-0.3,0.2-0.6,0.2-0.8c0-0.2,0-0.3,0-0.4c-0.1-0.1-0.2-0.2-0.3-0.2c-0.2,0-0.4-0.1-0.7-0.1c-0.2,0-0.4,0-0.6,0
			c-0.2,0-0.3,0-0.5,0.1c-0.1,0-0.2,0.1-0.3,0.1c-0.1,0.1-0.1,0.2-0.1,0.4l-1.5,5c-0.1,0.2-0.2,0.3-0.3,0.3h-2.1
			c-0.1,0-0.1,0-0.2-0.1c0,0,0-0.1,0-0.2l2.1-7.1c0.1-0.2,0.2-0.3,0.4-0.3c0.5-0.1,1.1-0.1,1.6-0.2c0.6,0,1.2-0.1,1.9-0.1
			c0.5,0,0.9,0,1.3,0.1s0.6,0.1,0.9,0.2c0.2,0.1,0.4,0.2,0.6,0.2c0.2,0.1,0.3,0.2,0.4,0.3c0.2,0.2,0.3,0.5,0.2,1s-0.1,0.9-0.3,1.6
			L96,31.6z"/>
		<path fill="#FFFFFF" d="M98.7,27.7c0.2-0.8,0.5-1.5,0.8-2c0.3-0.5,0.7-0.9,1.1-1.2c0.4-0.2,0.8-0.4,1.3-0.5
			c0.5-0.1,1.1-0.2,1.8-0.2c0.7,0,1.3,0.1,1.8,0.2s0.8,0.3,1,0.5c0.1,0.1,0.2,0.3,0.3,0.5s0.1,0.4,0.1,0.7c0,0.3,0,0.6-0.1,1
			s-0.2,0.8-0.3,1.3c-0.1,0.2-0.1,0.3-0.2,0.4c-0.1,0.1-0.2,0.1-0.4,0.1h-4.3c-0.2,0-0.3,0-0.4,0.1s-0.1,0.1-0.1,0.2
			c-0.1,0.2-0.1,0.4-0.1,0.5c0,0.2,0,0.3,0.1,0.4c0.1,0.2,0.7,0.3,1.7,0.3c0.6,0,1.1,0,1.5-0.1s0.8-0.1,1.1-0.1c0.1,0,0.1,0,0.2,0.1
			c0.1,0,0.1,0.1,0.1,0.2c0,0.1,0,0.2-0.1,0.3c-0.1,0.1-0.1,0.3-0.2,0.4c-0.1,0.1-0.2,0.3-0.3,0.4s-0.2,0.2-0.4,0.3
			c-0.2,0.1-0.5,0.2-0.9,0.3c-0.4,0.1-1,0.1-1.7,0.1c-0.9,0-1.6-0.1-2.1-0.2c-0.5-0.1-0.9-0.4-1.1-0.6c-0.3-0.3-0.4-0.7-0.4-1.3
			C98.3,29.3,98.4,28.6,98.7,27.7z M103.3,25.7c-0.4,0-0.8,0.1-1,0.3c-0.1,0.1-0.3,0.2-0.4,0.4c-0.1,0.2-0.2,0.4-0.2,0.5
			c0,0.1,0,0.1,0,0.2c0,0,0.1,0,0.3,0h1.7c0.1,0,0.2,0,0.3,0c0.1,0,0.2,0,0.2-0.1c0.1,0,0.1-0.1,0.1-0.2c0.1-0.2,0.1-0.4,0.1-0.6
			c0-0.2,0-0.3-0.1-0.4c-0.1-0.1-0.2-0.1-0.3-0.2C103.7,25.7,103.5,25.7,103.3,25.7z"/>
		<path fill="#FFFFFF" d="M114.3,26.8c-0.2,0.6-0.3,1.2-0.3,1.6s0.1,0.7,0.2,0.9c0.1,0.2,0.4,0.3,0.7,0.4c0.3,0.1,0.8,0.1,1.5,0.1
			c0.5,0,1,0,1.5-0.1c0.5-0.1,0.8-0.1,1.1-0.1c0.1,0,0.2,0,0.2,0.1c0.1,0.1,0.1,0.1,0.1,0.3c0,0.1-0.1,0.2-0.1,0.4
			c-0.1,0.2-0.2,0.3-0.3,0.5s-0.2,0.3-0.4,0.5c-0.1,0.2-0.3,0.3-0.5,0.3c-0.3,0.1-0.7,0.2-1.2,0.3c-0.5,0.1-1.2,0.1-2,0.1
			c-0.9,0-1.6-0.1-2.2-0.3c-0.5-0.2-0.9-0.5-1.2-0.8c-0.1-0.2-0.2-0.4-0.3-0.6c-0.1-0.3-0.1-0.6-0.2-0.9c0-0.4,0-0.8,0.1-1.3
			c0.1-0.5,0.2-1,0.4-1.6c0.3-1,0.7-1.9,1.1-2.5c0.5-0.6,0.9-1.1,1.4-1.4c0.4-0.3,0.9-0.5,1.5-0.6s1.4-0.2,2.3-0.2
			c1.3,0,2.2,0.1,2.6,0.4c0.2,0.1,0.4,0.4,0.5,0.7s0.2,0.6,0.2,0.9c0,0.1,0,0.2-0.1,0.3c-0.1,0.1-0.2,0.1-0.3,0.1
			c-0.3,0-0.6-0.1-1-0.1c-0.4,0-0.9-0.1-1.4-0.1c-0.7,0-1.2,0-1.5,0.1c-0.4,0.1-0.7,0.2-0.9,0.4c-0.3,0.2-0.5,0.5-0.8,0.9
			C114.7,25.6,114.5,26.1,114.3,26.8z"/>
		<path fill="#FFFFFF" d="M127.3,31.4c0,0.1-0.1,0.2-0.2,0.3c-0.1,0.1-0.1,0.1-0.2,0.1c-0.2,0-0.4,0.1-0.7,0.1s-0.5,0-0.7,0.1
			c-0.3,0-0.5,0-0.8,0.1c-0.3,0-0.6,0-1,0c-0.5,0-1,0-1.4-0.1s-0.7-0.1-0.9-0.2c-0.3-0.1-0.4-0.1-0.6-0.2c-0.1-0.1-0.3-0.2-0.3-0.3
			c-0.1-0.2-0.2-0.4-0.2-0.7c0-0.3,0-0.7,0.2-1.2c0.1-0.4,0.3-0.8,0.5-1c0.2-0.3,0.4-0.5,0.5-0.6c0.1-0.1,0.3-0.1,0.6-0.2
			c0.3-0.1,0.6-0.1,1-0.1s0.8-0.1,1.3-0.1c0.5,0,1-0.1,1.5-0.1c0.1,0,0.1,0,0.2-0.1c0,0,0.1-0.1,0.1-0.2c0.1-0.5,0.2-0.8,0-0.9
			c-0.1-0.1-0.5-0.2-1.2-0.2c-0.6,0-1.1,0-1.6,0.1s-0.9,0.1-1.1,0.1c-0.2,0-0.3-0.1-0.3-0.3c0-0.1,0-0.2,0.1-0.3
			c0.1-0.1,0.1-0.2,0.2-0.4c0.1-0.1,0.2-0.2,0.3-0.4s0.2-0.2,0.4-0.3c0.5-0.3,1.4-0.4,2.7-0.4c0.9,0,1.6,0.1,2,0.2
			c0.5,0.1,0.8,0.3,0.9,0.5c0.1,0.1,0.2,0.2,0.2,0.4c0.1,0.2,0.1,0.4,0.1,0.6c0,0.2,0,0.6-0.1,0.9c-0.1,0.4-0.2,0.8-0.3,1.3
			L127.3,31.4z M125.5,28.7c0-0.1,0-0.2,0-0.2c0,0-0.1,0-0.2,0c-0.2,0-0.4,0-0.6,0s-0.4,0-0.6,0c-0.2,0-0.4,0-0.5,0.1
			s-0.2,0.1-0.3,0.1c-0.1,0.1-0.1,0.1-0.2,0.2c-0.1,0.1-0.1,0.2-0.2,0.4c-0.1,0.3-0.1,0.5,0,0.6c0.1,0.1,0.4,0.2,1,0.2
			c0.3,0,0.5,0,0.7,0c0.2,0,0.3-0.1,0.4-0.1c0,0,0.1-0.1,0.1-0.1c0-0.1,0.1-0.2,0.1-0.3L125.5,28.7z"/>
		<path fill="#FFFFFF" d="M134.6,23.9c1.2,0,1.9,0.1,2.2,0.3c0.1,0.1,0.3,0.3,0.4,0.5c0.1,0.2,0.1,0.5,0.1,0.8
			c0,0.1-0.1,0.2-0.1,0.3c-0.1,0.1-0.2,0.1-0.3,0.1c-0.2,0-0.6-0.1-0.9-0.1c-0.4,0-0.8,0-1.2,0c-0.9,0-1.4,0.1-1.6,0.2
			c-0.1,0.1-0.1,0.1-0.2,0.2c-0.1,0.1-0.1,0.2-0.2,0.3c0,0.1,0,0.2-0.1,0.3c0,0.1,0,0.1,0,0.2c0.1,0,0.2,0.1,0.4,0.1
			c0.2,0,0.4,0.1,0.6,0.1c0.2,0,0.5,0.1,0.8,0.1c0.3,0,0.5,0.1,0.8,0.1s0.5,0.1,0.6,0.2c0.2,0.1,0.3,0.1,0.4,0.2
			c0.1,0.1,0.2,0.3,0.2,0.6c0,0.3,0,0.7-0.2,1.3c-0.1,0.5-0.3,0.9-0.5,1.1c-0.2,0.3-0.4,0.5-0.7,0.7c-0.3,0.2-0.6,0.3-1.1,0.4
			c-0.5,0.1-1.1,0.2-1.8,0.2c-0.4,0-0.8,0-1.1,0c-0.3,0-0.5,0-0.8-0.1c-0.2,0-0.4-0.1-0.5-0.1s-0.2-0.1-0.3-0.2
			c-0.1-0.1-0.3-0.3-0.3-0.6s-0.1-0.5-0.1-0.7c0-0.1,0.1-0.2,0.1-0.2c0.1-0.1,0.2-0.1,0.3-0.1c0.3,0,0.6,0.1,1,0.1
			c0.4,0,0.9,0.1,1.4,0.1c0.3,0,0.6,0,0.8-0.1s0.4-0.1,0.5-0.1c0.2-0.1,0.3-0.3,0.4-0.5c0-0.1,0-0.2,0.1-0.3s0-0.1,0-0.2
			c-0.1,0-0.2-0.1-0.4-0.1c-0.2,0-0.4-0.1-0.6-0.1c-0.2,0-0.5-0.1-0.8-0.1c-0.3,0-0.5-0.1-0.8-0.2c-0.2-0.1-0.4-0.1-0.6-0.2
			c-0.2-0.1-0.3-0.1-0.4-0.2c-0.1-0.1-0.1-0.3-0.1-0.6s0-0.6,0.1-1c0.1-0.5,0.3-0.9,0.5-1.2s0.4-0.6,0.7-0.8
			c0.3-0.2,0.7-0.4,1.2-0.5S133.8,23.9,134.6,23.9z"/>
		<path fill="#FFFFFF" d="M139.8,31.6c0,0.2-0.2,0.3-0.3,0.3h-2.1c-0.1,0-0.2,0-0.2-0.1c0,0,0-0.1,0-0.2l2.1-7.3
			c0.1-0.2,0.2-0.3,0.4-0.3h2.1c0.1,0,0.2,0,0.2,0.1c0,0,0,0.1,0,0.2L139.8,31.6z M142.8,21.8c-0.1,0.2-0.1,0.4-0.3,0.6
			s-0.2,0.3-0.4,0.4c-0.1,0-0.2,0.1-0.3,0.1c-0.1,0-0.2,0.1-0.3,0.1c-0.1,0-0.2,0-0.3,0s-0.2,0-0.3,0c-0.3,0-0.5,0-0.7-0.1
			c-0.2,0-0.3-0.1-0.4-0.2c-0.1-0.1-0.1-0.5,0-0.9c0-0.2,0.1-0.5,0.2-0.6c0.1-0.2,0.2-0.3,0.4-0.4c0.1,0,0.3-0.1,0.5-0.1
			c0.2,0,0.5-0.1,0.7-0.1c0.3,0,0.5,0,0.7,0.1c0.2,0,0.3,0.1,0.4,0.2c0.1,0.1,0.1,0.2,0.1,0.4S142.9,21.6,142.8,21.8z"/>
		<path fill="#FFFFFF" d="M149.6,31.6c0,0.1-0.1,0.2-0.1,0.2c-0.1,0-0.1,0.1-0.2,0.1h-2c-0.1,0-0.2,0-0.2-0.1c0-0.1,0-0.2,0-0.3
			l1.1-3.9c0.1-0.3,0.2-0.6,0.2-0.8c0-0.2,0-0.3,0-0.4c0-0.1-0.2-0.2-0.3-0.2c-0.2,0-0.4-0.1-0.7-0.1c-0.2,0-0.4,0-0.6,0
			c-0.2,0-0.3,0-0.5,0.1c-0.1,0-0.2,0.1-0.3,0.1c0,0.1-0.1,0.2-0.1,0.4l-1.5,5c-0.1,0.2-0.2,0.3-0.3,0.3h-2.1c-0.1,0-0.1,0-0.2-0.1
			c0,0,0-0.1,0-0.2l2.1-7.1c0-0.2,0.2-0.3,0.4-0.3c0.5-0.1,1.1-0.1,1.6-0.2s1.2-0.1,1.9-0.1c0.5,0,0.9,0,1.3,0.1
			c0.3,0,0.6,0.1,0.9,0.2s0.4,0.2,0.6,0.2c0.2,0.1,0.3,0.2,0.4,0.3c0.2,0.2,0.3,0.5,0.2,1s-0.1,0.9-0.3,1.6L149.6,31.6z"/>
		<path fill="#FFFFFF" d="M160.3,28.1c-0.2,0.8-0.5,1.5-0.8,2c-0.4,0.5-0.7,0.9-1.1,1.2c-0.4,0.2-0.8,0.4-1.4,0.5
			c-0.5,0.1-1.1,0.2-1.8,0.2c-0.8,0-1.5-0.1-2-0.3c-0.5-0.2-0.8-0.4-1-0.7c-0.2-0.3-0.3-0.7-0.4-1.3c-0.1-0.6,0-1.3,0.3-2.2
			c0.2-0.7,0.5-1.3,0.8-1.8s0.7-0.9,1.1-1.2c0.8-0.5,1.8-0.7,3.1-0.7c0.5,0,0.9,0,1.2,0.1c0.3,0,0.6,0.1,0.9,0.2s0.4,0.2,0.6,0.3
			c0.2,0.1,0.3,0.2,0.4,0.3c0.1,0.1,0.2,0.3,0.3,0.5c0.1,0.2,0.1,0.4,0.1,0.7c0,0.3,0,0.6,0,1C160.6,27.2,160.5,27.6,160.3,28.1z
			 M157.8,28c0.1-0.5,0.2-0.9,0.2-1.1s0-0.5-0.1-0.6c-0.1-0.2-0.5-0.3-1.1-0.3c-0.3,0-0.6,0-0.8,0.1c-0.2,0.1-0.4,0.1-0.5,0.2
			c-0.2,0.1-0.3,0.3-0.5,0.5s-0.3,0.6-0.5,1.1c-0.1,0.4-0.2,0.8-0.2,1.1c0,0.3,0,0.6,0.1,0.7c0.1,0.1,0.2,0.2,0.4,0.3
			c0.2,0.1,0.4,0.1,0.7,0.1c0.3,0,0.5,0,0.7-0.1c0.2-0.1,0.4-0.1,0.5-0.2c0.2-0.1,0.3-0.3,0.5-0.6C157.5,28.8,157.7,28.5,157.8,28z"
			/>
	</g>
	<g>
		<g>
			<path fill="#FFFFFF" d="M50.2,0.2c0.8,0,1,0,1.6,0.1c1.9,0.3,2.9,1.3,3.1,3.1c0.1,1.2-0.3,1.6-1.5,1.4c-1.9-0.3-3.7-0.4-5.6,0.1
				c-2,0.5-4,4.6-3.2,6.4c0.3,0.8,1.1,0.9,1.8,0.9c1.7,0,3.3,0.1,5-0.2c1.1-0.2,1.4,0.3,1,1.3c-0.9,1.9-2.2,3.1-4.4,3.3
				c-1.8,0.1-3.6,0.3-5.5,0c-2.6-0.5-4-1.9-3.9-4.5c0.1-3,0.9-5.7,2.6-8.2c1.5-2.2,3.6-3.3,6.2-3.6c0.3,0,0.5-0.1,0.8-0.1
				C48.8,0.3,49.5,0.2,50.2,0.2z"/>
		</g>
		<g>
			<path fill="#FFFFFF" d="M144.2,0.2c1,0.1,1,0,1.5,0.1c1.9,0.3,2.9,1.3,3.1,3.1c0.1,1.2-0.3,1.6-1.5,1.4c-1.9-0.3-3.7-0.4-5.6,0.1
				c-2,0.5-4,4.6-3.2,6.4c0.3,0.8,1.1,0.9,1.8,0.9c1.7,0,3.3,0.1,5-0.2c1.1-0.2,1.4,0.3,1,1.3c-0.9,1.9-2.2,3.1-4.4,3.3
				c-1.8,0.1-3.6,0.3-5.5,0c-2.6-0.5-4-1.9-3.9-4.5c0.1-3,0.9-5.7,2.6-8.2c1.5-2.2,3.6-3.3,6.2-3.6c0.3,0,0.3-0.1,0.9-0.1
				C142.9,0.2,143.5,0.2,144.2,0.2z"/>
		</g>
		<g>
			<path fill="#FFFFFF" d="M4.8,12.7c0.6-0.3,1.1-0.4,1.8-0.2c0.5,0.1,1.1,0.2,1.6,0.2c4.2,0.2,4.6-0.1,5.8-4.2c0.6-2,1.3-4,1.7-6
				c0.3-1.5,1.1-2.1,2.6-2.1c3.4,0,3.5,0,2.4,3.4c-0.8,2.8-1.6,5.6-2.5,8.4c-0.9,2.9-2.9,4.4-6,4.6c-1.2,0.1-2.3,0.1-3.5,0.1
				c-2.1,0-3.4-0.8-4-2.8C4.8,13.6,4.8,13.1,4.8,12.7z"/>
		</g>
		<g>
			<path fill="#FFFFFF" d="M59.6,0.5c2.9,0,2.9,0,2.1,2.7c-0.1,0.5-0.3,0.9-0.4,1.4c-0.1,0.6-0.8,1.3-0.1,1.6
				c0.7,0.4,1.7,0.3,2.3-0.4c0.7-0.8,1.4-1.6,1.9-2.5c1.4-2.7,3.8-3,6.4-2.8c1.2,0,1.2,0.6,0.6,1.4c-1.3,1.7-2.4,3.6-3.8,5.2
				c-1.7,1.9-1,3.9-0.7,6c0.1,0.4,0.3,0.7,0.4,1.2c0,0.9,1.1,2.1-0.7,2.4c-2.6,0.5-4.3-0.2-4.6-2c-0.2-0.9-0.3-1.9-0.4-2.8
				c-0.1-0.8-0.5-1.3-1.4-1.3c-0.9,0-1.5,0.1-1.6,1.2c0,0.4-0.2,0.8-0.3,1.3c-1.1,3.8-1.6,4.1-5.6,3.6c-0.8-0.1-0.8-0.5-0.6-1
				c1.3-4.8,2.7-9.5,4.1-14.3C57.3-0.3,58.8,0.8,59.6,0.5z"/>
		</g>
		<g>
			<path fill="#FFFFFF" d="M153.7,0.4c2.9,0,2.9,0,2.1,2.6c-0.2,0.5-0.3,1-0.4,1.6c-0.2,0.7-0.6,1.5-0.1,1.6
				c0.7,0.2,1.6,0.3,2.2-0.4c0.7-0.8,1.4-1.6,1.9-2.5c1.5-2.7,3.6-3.1,6.3-3c1.2,0.1,1.4,0.5,0.7,1.4c-1.2,1.6-2.3,3.3-3.5,4.8
				c-1.2,1.5-1.8,3.1-1.2,5c0.2,1,0.3,1,0.4,1.7c0.2,1.1,1.3,2.7-0.7,3.2c-3,0.7-4.4-0.2-4.7-2.8c-0.1-0.7-0.2-1.4-0.4-2.1
				c-0.2-0.9-0.8-1.1-1.6-1.1c-0.8,0-1.3,0.2-1.4,1c-0.1,0.4-0.2,0.9-0.3,1.3c-1.4,4.3-0.4,3.7-5.5,3.7c-0.9,0-0.9-0.4-0.7-1
				c1.4-4.8,2.7-9.5,4.1-14.3c0.3-1,0.9-1,1.5-1C152.8,0.4,153.3,0.5,153.7,0.4z"/>
		</g>
		<g>
			<path fill="#FFFFFF" d="M86.3,6.7c2,0,4.1,0,6.1,0c1.1,0,1.2,0.5,0.9,1.3c-0.6,1.5-1.4,2.6-3.3,2.4c-1.3-0.1-2.6,0-3.8,0
				c-0.8,0-1.2,0.2-1.5,1.1c-0.3,1-0.2,1.3,0.8,1.3c1.9-0.1,3.9,0,5.8-0.1c1.2,0,1.3,0.4,0.8,1.4c-0.8,1.7-2,2.8-4.1,2.7
				c-2.9-0.1-5.8-0.1-8.7,0c-1.3,0-1.4-0.3-1.1-1.5c1.3-4.4,2.6-8.9,3.8-13.4c0.2-0.9,0.6-1.3,1.6-1.3c2.9,0,5.8-0.1,8.6-0.1
				c1.9,0,2.8,1.4,2.6,3.2c-0.1,0.8-0.6,0.8-1.2,0.8c-1.6,0-3.2,0-4.8-0.1C87.3,4.3,86.1,4.5,86.3,6.7z"/>
		</g>
		<g>
			<path fill="#FFFFFF" d="M208.5,0.4c2.3,0,4.3,0,6.2,0c1,0,1.4,0.3,1,1.4c-0.8,2.3-1.4,3-3.7,2.8c-1.8-0.1-2.5,0.6-2.9,2.2
				c-0.7,2.8-1.6,5.5-2.3,8.3c-0.3,1.2-0.8,1.7-2.1,1.6c-1.2-0.1-2.9,0.4-3.5-0.2c-0.6-0.7,0.4-2.2,0.7-3.4c0.6-2.2,1.2-4.5,1.9-6.7
				c0.5-1.4,0-1.9-1.4-1.7c-0.2,0-0.3,0-0.5,0c-0.9,0-2,0.6-2.5-0.6c-0.4-1,1.4-3.3,2.6-3.5C204.3,0.2,206.6,0.5,208.5,0.4z"/>
		</g>
		<g>
			<path fill="#FFFFFF" d="M104,16.9c-0.6-0.1-1.5-0.1-2.3-0.2c-1.8-0.2-2.8-1.5-2.8-3.3c0-1.1,0.7-1.2,1.5-1
				c1.3,0.3,2.5,0.2,3.8,0.2c1.7,0,2.8-0.7,3.3-2.4c0.8-2.6,1.6-5.2,2.3-7.9c0.4-1.5,1.2-1.9,2.6-1.9c3.5,0,3.5,0,2.5,3.4
				c-0.7,2.3-1.3,4.7-2,7C111.3,15.5,109.2,16.9,104,16.9z"/>
		</g>
		<g>
			<path fill="#FFFFFF" d="M72.4,16.7c-2.5,0-2.5,0-1.8-2.4c1.1-4,2.3-7.9,3.4-11.9c0.4-1.5,1.2-1.9,2.6-1.9c3.3,0,3.4,0,2.5,3.1
				c-1.1,3.9-2.2,7.7-3.3,11.6C75.2,17.1,73.7,16.6,72.4,16.7z"/>
		</g>
		<g>
			<path fill="#FFFFFF" d="M194.5,0.2c-0.2-0.1-0.4-0.1-0.6-0.1c-1-0.2-1.9-0.1-3.2-0.1c-0.1,0-0.2,0-0.3,0
				c-3.7,0.6-6.3,2.6-7.6,6.2c-0.5,1.3-0.9,2.7-1.1,4.1c-0.7,4.4,0.9,6.3,5.3,6.6c5.5,0.3,8.6-1.3,10.3-5.4c0.8-2,1.4-4.1,1.6-6.2
				c0.2-2.9-0.7-4.4-3.2-4.9C195.3,0.4,195,0.3,194.5,0.2z M193.3,6.1c-0.3,1.9-0.9,3.6-1.9,5.2c-0.6,0.9-1.5,1-2.3,1
				c-2.1,0-2.4-0.3-2.1-2.2c0.2-1.4,0.7-2.7,1.4-3.8c0.8-1.4,2.6-2,4.2-1.5C193.3,5,193.4,5.5,193.3,6.1z"/>
		</g>
		<g>
			<path fill="#FFFFFF" d="M130.3,9.6c-0.1-2.1,0.2-4.5-0.2-6.8c-0.1-0.8-0.4-1.5-1.1-2c-1.9-1.2-7.2-0.6-8.6,1.3
				c-3.1,4.2-5.5,8.9-8.1,13.4c-0.3,0.5-0.3,0.8,0.2,1.1c1.7,0.8,5.4-0.1,6.1-1.7c0.9-2.3,2.6-2.7,4.7-2.5c1,0.1,1.5,0.3,1.4,1.4
				c0,2.6,0.3,2.8,2.8,2.8c0.5,0,1,0,1.5,0c0.9,0.1,1.3-0.3,1.3-1.3C130.3,13.6,130.3,11.8,130.3,9.6z M125.1,6.3
				c-0.1,2.4-0.2,2.4-2.2,2.3c-0.8,0-1.2-0.2-0.7-1.1c0.3-0.5,0.5-1.1,0.8-1.6c0.4-0.7,0.6-1.6,1.6-1.3C125.6,5,125,5.9,125.1,6.3z"
				/>
		</g>
		<g>
			<path fill="#FFFFFF" d="M36.4,15c-0.1-1.6,0-3.3,0-5.3c-0.1-2,0.2-4.4-0.2-6.8C36,2,35.8,1.2,35,0.8c-2.2-1.3-7.2-0.5-8.7,1.6
				c-3,4.2-5.3,8.7-7.9,13.2c-0.4,0.6-0.3,1,0.5,1.1c3.3,0.6,4.8-0.1,6.5-3c0.5-0.9,1.1-1.3,2.1-1.2c0.7,0.1,1.3,0.1,2,0
				c1-0.1,1.3,0.3,1.3,1.4c0,2.7,0.3,2.9,2.9,2.9c0.3,0,0.6,0,0.8,0C35.9,16.8,36.5,16.4,36.4,15z M31.2,6.6c-0.2,0.7,0.4,1.8-0.9,2
				c-0.7,0.1-1.6,0.4-2.1-0.2c-0.5-0.5,0.3-1.2,0.5-1.8c0.1-0.2,0.2-0.4,0.3-0.6c0.4-0.7,0.6-1.8,1.7-1.4C31.6,5,31,6,31.2,6.6z"/>
		</g>
		<g>
			<path fill="#FFFFFF" d="M179.1,0.7c-1.8-0.4-3.5-0.3-5.3-0.2c-1.3,0-2.5,0-3.8,0c-1.2,0-1.7,0.5-2,1.7c-1.1,4-2.3,8-3.5,12.1
				c-0.7,2.5-0.7,2.5,1.9,2.5c0.4,0,0.7,0.1,1.2,0c1.5-0.1,1.7,0,2.1-1.5c1-3.4,0.9-3.6,4.5-3.5c5.7,0.2,7.3-4.2,7.5-7.8
				C181.8,2.1,180.9,1.1,179.1,0.7z M173,7.9c-0.4-0.1-1.1,0.2-1.1-0.7c0-1.9,1-2.9,2.8-2.9c0.6,0,1.5-0.3,1.5,0.9
				C176.1,7,175,8,173,7.9z"/>
		</g>
	</g>
</g>
</svg>
