<?xml version="1.0" encoding="utf-8"?>
<!-- Generator: Adobe Illustrator 19.1.0, SVG Export Plug-In . SVG Version: 6.00 Build 0)  -->
<svg version="1.1" id="Layer_1" xmlns="http://www.w3.org/2000/svg" xmlns:xlink="http://www.w3.org/1999/xlink" x="0px" y="0px"
	 viewBox="0 0 256 258" style="enable-background:new 0 0 256 258;" xml:space="preserve">
<style type="text/css">
	.st0{fill:#090909;}
	.st1{fill:#010101;}
</style>
<g>
	<g>
		<path class="st0" d="M234.1,241.2H24.8c-4.9,0-8.9-4-8.9-8.9V23c0-4.9,4-8.9,8.9-8.9h209.3c4.9,0,8.9,4,8.9,8.9v209.3
			C243.1,237.2,239.1,241.2,234.1,241.2z M24.8,22.4l-0.6,209.9l209.9,0.6c0.3,0,0.6-0.3,0.6-0.6V23L24.8,22.4z"/>
	</g>
	<g>
		<path class="st1" d="M130.9,147.4C130.9,147.4,130.9,147.4,130.9,147.4C130.9,147.4,130.9,147.4,130.9,147.4z"/>
		<path class="st1" d="M97.4,132.9l27,27c2.3,2.3,6.1,2.3,8.4,0c2.3-2.3,2.3-6.1,0-8.4L116,134.7h43.7c3.3,0,5.9-2.7,5.9-5.9
			c0-3.3-2.7-5.9-5.9-5.9H116l16.8-16.8c2.3-2.3,2.3-6.1,0-8.4c-1.2-1.2-2.7-1.7-4.2-1.7c-1.5,0-3,0.6-4.2,1.7l-27,27
			C95.1,126.9,95.1,130.6,97.4,132.9z"/>
	</g>
</g>
</svg>
