<?xml version="1.0" encoding="utf-8"?>
<!-- Generator: Adobe Illustrator 19.1.0, SVG Export Plug-In . SVG Version: 6.00 Build 0)  -->
<svg version="1.1" id="Layer_1" xmlns="http://www.w3.org/2000/svg" xmlns:xlink="http://www.w3.org/1999/xlink" x="0px" y="0px"
	 viewBox="-3158 1684.6 32 32" style="enable-background:new -3158 1684.6 32 32;" xml:space="preserve">
<style type="text/css">
	.st0{fill:#231F20;}
</style>
<path class="st0" d="M-3126,1703.5c-0.2-4.7-3.2-10.2-8.3-12.2l3.2-3.3c0.6-0.6,0.7-1.4,0.4-2.2c-0.3-0.7-1-1.2-1.8-1.2h-18.8
	c-0.8,0-1.5,0.5-1.8,1.2c-0.3,0.7-0.2,1.6,0.4,2.2l3.5,3.6c-4.8,2.2-8.5,7-8.6,11.9c0,0.1,0,7.1,0,7.1c0,3,2.4,6,6,6h20
	c3.6,0,6-3,6-6C-3126,1710.6-3126,1703.6-3126,1703.5 M-3151.4,1686.6h18.8l-4.8,5h-2l0.9-2.7c0.1-0.3-0.1-0.6-0.3-0.7
	c0,0-0.1,0-0.1,0c-0.2,0-0.4,0.2-0.5,0.4l-1,3h-3.2l-1-3c-0.1-0.2-0.3-0.4-0.5-0.4c0,0-0.1,0-0.1,0c-0.3,0.1-0.4,0.4-0.3,0.7
	l0.8,2.7h-2L-3151.4,1686.6z M-3128,1710.6c0,2.4-1.4,4-4,4h-20c-2.6,0-4-1.6-4-4c0,0,0-7,0-7c0.1-4.7,4.6-9.9,10-10.9h9
	c5.4,1,8.9,6.4,9,11L-3128,1710.6z"/>
<path class="st0" d="M-3140.9,1702.5c-1.5-0.5-2.1-0.9-2.1-1.5c0-0.5,0.4-1,1.5-1c1.2,0,2.1,0.4,2.5,0.6l0.5-1.9
	c-0.6-0.3-1.5-0.5-2.5-0.6v-1.6h-2v1.7c-2,0.3-2.8,1.5-2.8,3.1c0,1.7,1.4,2.5,3.2,3.1c1.3,0.4,1.8,0.8,1.8,1.5
	c0,0.7-0.7,1.1-1.7,1.1c-1.1,0-2.1-0.4-2.9-0.8l-0.5,2c0.7,0.4,1.9,0.7,2.9,0.7v1.5h2v-1.7c2-0.3,3-1.6,3-3.2
	C-3138,1704.2-3138.9,1703.3-3140.9,1702.5"/>
</svg>
