<?xml version="1.0" encoding="utf-8"?>
<!-- Generator: Adobe Illustrator 19.1.0, SVG Export Plug-In . SVG Version: 6.00 Build 0)  -->
<svg version="1.1" id="Layer_1" xmlns="http://www.w3.org/2000/svg" xmlns:xlink="http://www.w3.org/1999/xlink" x="0px" y="0px"
	 viewBox="-3158 1684.6 32 32" style="enable-background:new -3158 1684.6 32 32;" xml:space="preserve">
<style type="text/css">
	.st0{fill:#231F20;}
</style>
<path class="st0" d="M-3126,1691.1c-0.1-0.7-0.6-1.2-1.2-1.4l-2.8-1.1l-1.1-2.8c-0.2-0.6-0.8-1.1-1.4-1.2c-0.1,0-0.3,0-0.4,0
	c-0.5,0-1,0.2-1.4,0.6l-3.4,3.4c-0.6,0.6-0.7,1.4-0.5,2.1l0.4,1.2c-0.6-0.2-1.1-0.2-1.7-0.2c-1.9,0-3.6,0.7-5,1.9
	c-1.4-1.2-3.1-1.9-5-1.9c-3.5,0-7.5,3.6-7.5,8.4c0,1.8,0.6,3.6,1.9,5.5c-0.1,0-0.2,0-0.2,0c-1.3,0-2.7,1-2.7,3.2v5.8
	c0,1.1,0.9,2,2,2h5.8c2.1,0,2.8-1.2,3-1.7c0.1-0.3,0.3-0.9,0.1-1.6c0.9,0.6,1.4,1,1.5,1c0.3,0.2,0.7,0.3,1.1,0.3
	c0.4,0,0.7-0.1,1.1-0.3c1.2-0.7,11.4-7.5,11.4-14.2c0-1.2-0.3-2.3-0.8-3.5l0.7,0.3c0.2,0.1,0.5,0.1,0.7,0.1c0.5,0,1-0.2,1.4-0.6
	l3.4-3.4C-3126.1,1692.5-3125.9,1691.8-3126,1691.1 M-3150.2,1714.6h-5.8v-5.8c0-0.8,0.3-1.2,0.7-1.2c0.3,0,0.6,0.2,0.9,0.5l2.1,2.1
	l5.9-5.9c0.2-0.2,0.5-0.2,0.7,0c0.2,0.2,0.2,0.5,0,0.7l-5.9,5.9l2.1,2.1C-3148.6,1713.8-3148.9,1714.6-3150.2,1714.6
	 M-3144.5,1712.6c0,0-2-1.2-4.2-3.1l3.8-3.8c0.6-0.6,0.6-1.5,0-2.1c-0.6-0.6-1.6-0.6-2.1,0l-3.9,3.9c-2.2-2.2-4.1-4.8-4.1-7.4
	c0-3,2.5-6.4,5.5-6.4c2.2,0,4.1,1.3,5,3.1c0.9-1.8,2.8-3.1,5-3.1c0.6,0,1.1,0.1,1.6,0.3c1.2,0.5,2.2,1.5,2.9,2.7h0
	c0.6,1.1,1,2.3,1,3.4C-3134,1705.9-3144.5,1712.6-3144.5,1712.6 M-3131.4,1694.9l-2.6-1h0l-1,1c-0.4-0.5-0.9-1-1.5-1.3l1-1l-1-2.6
	l3.4-3.4l1.4,3.6l3.6,1.4L-3131.4,1694.9z"/>
</svg>
