<?xml version="1.0" encoding="utf-8"?>
<!-- Generator: Adobe Illustrator 19.1.0, SVG Export Plug-In . SVG Version: 6.00 Build 0)  -->
<svg version="1.1" id="Layer_1" xmlns="http://www.w3.org/2000/svg" xmlns:xlink="http://www.w3.org/1999/xlink" x="0px" y="0px"
	 viewBox="-3110.7 1652.5 72.8 72.8" style="enable-background:new -3110.7 1652.5 72.8 72.8;" xml:space="preserve">
<g>
	<path d="M-3074.3,1725.3c-20.1,0-36.4-16.3-36.4-36.4s16.3-36.4,36.4-36.4c20.1,0,36.4,16.3,36.4,36.4
		S-3054.2,1725.3-3074.3,1725.3z M-3074.3,1657.3c-17.4,0-31.6,14.2-31.6,31.6s14.2,31.6,31.6,31.6c17.4,0,31.6-14.2,31.6-31.6
		S-3056.9,1657.3-3074.3,1657.3z"/>
	<path d="M-3079.6,1701.3c-2.4,0-4.4-1.9-4.4-4.6V1681c0-2.6,2-4.6,4.4-4.6c0.9,0,1.9,0.3,2.8,0.8l12.7,7.7c1.5,0.9,2.5,2.4,2.5,3.9
		s-0.9,3-2.4,3.9l-12.8,7.7C-3077.7,1701-3078.8,1701.3-3079.6,1701.3z M-3079,1681.6v14.5l11.9-7.2L-3079,1681.6z"/>
</g>
</svg>
