<?xml version="1.0" encoding="utf-8"?>
<!-- Generator: Adobe Illustrator 17.1.0, SVG Export Plug-In . SVG Version: 6.00 Build 0)  -->
<!DOCTYPE svg PUBLIC "-//W3C//DTD SVG 1.1//EN" "http://www.w3.org/Graphics/SVG/1.1/DTD/svg11.dtd">
<svg version="1.1" id="Layer_1" xmlns="http://www.w3.org/2000/svg" xmlns:xlink="http://www.w3.org/1999/xlink" x="0px" y="0px"
	 viewBox="0 0 32 32" enable-background="new 0 0 32 32" xml:space="preserve">
<g>
	<defs>
		<rect id="SVGID_1_" width="32" height="32"/>
	</defs>
	<clipPath id="SVGID_2_">
		<use xlink:href="#SVGID_1_"  overflow="visible"/>
	</clipPath>
	<path clip-path="url(#SVGID_2_)" fill="#231F20" d="M17.062,17.962c-1.475-0.532-2.072-0.909-2.072-1.458
		c0-0.481,0.369-0.979,1.482-0.979c1.236,0,2.057,0.395,2.484,0.601l0.544-1.938c-0.602-0.276-1.452-0.533-2.452-0.567V12h-2v1.741
		c-2,0.343-2.795,1.529-2.795,3.054c0,1.665,1.358,2.522,3.194,3.14c1.287,0.429,1.828,0.841,1.828,1.494
		c0,0.669-0.676,1.062-1.672,1.062c-1.115,0-2.143-0.359-2.861-0.754l-0.549,2.008c0.654,0.361,1.855,0.686,2.855,0.737V26h2v-1.655
		c2-0.325,2.952-1.629,2.952-3.156C20,19.626,19.108,18.682,17.062,17.962"/>
	<path clip-path="url(#SVGID_2_)" fill="#231F20" d="M31.996,18.956c-0.169-4.695-3.249-10.186-8.319-12.249l3.18-3.325
		c0.553-0.579,0.707-1.432,0.392-2.168C26.935,0.477,26.21,0,25.41,0H6.58C5.779,0,5.056,0.477,4.74,1.213
		C4.425,1.95,4.58,2.803,5.134,3.381l3.461,3.623c-4.762,2.171-8.451,7.047-8.592,11.89C-0.003,19.012,0.001,26,0.001,26
		c0,3,2.413,6,6.004,6h20.01c3.59,0,5.981-3,5.981-6C31.996,26,32.005,19.04,31.996,18.956 M6.58,2h18.83l-4.78,5h-1.966
		l0.851-2.687c0.088-0.273-0.061-0.649-0.334-0.738c-0.043-0.014-0.088-0.021-0.133-0.021c-0.228,0-0.447,0.18-0.521,0.408L17.574,7
		h-3.157l-0.955-3.01c-0.076-0.231-0.298-0.434-0.533-0.434c-0.041,0-0.082,0.006-0.121,0.019c-0.273,0.089-0.422,0.437-0.332,0.71
		L13.326,7h-1.967L6.58,2z M30.017,26c0,2.403-1.441,4-4.002,4H6.005c-2.558,0-4.031-1.625-4.031-4.029c0,0-0.004-6.956,0-7.026
		C2.097,14.281,6.607,9,12.007,8h9.004c5.401,1,8.914,6.35,9.035,11.014L30.017,26z"/>
</g>
</svg>
