<?xml version="1.0" encoding="utf-8"?>
<!-- Generator: Adobe Illustrator 19.1.0, SVG Export Plug-In . SVG Version: 6.00 Build 0)  -->
<svg version="1.1" id="Layer_1" xmlns="http://www.w3.org/2000/svg" xmlns:xlink="http://www.w3.org/1999/xlink" x="0px" y="0px"
	 viewBox="-2068.4 2795.8 87 53.5" style="enable-background:new -2068.4 2795.8 87 53.5;" xml:space="preserve">
<style type="text/css">
	.st0{stroke:#000000;stroke-width:2;stroke-miterlimit:10;}
</style>
<g>
	<path d="M-1999.8,2817.7h-20.6h-20.4h-0.2h-20.4c-0.5,0-0.9,0.4-0.9,0.9v21.9c0,0.5,0.4,0.9,0.9,0.9h20.4h0.2h20.4h20.6
		c0.5,0,0.9-0.4,0.9-0.9v-21.9C-1998.9,2818.1-1999.3,2817.7-1999.8,2817.7z M-2060.4,2819.6h18.5v20h-18.5V2819.6z M-2021.3,2839.6
		h-18.5v-20h18.5L-2021.3,2839.6L-2021.3,2839.6z M-2000.8,2839.6h-18.7v-20h18.7V2839.6z"/>
	<path class="st0" d="M-1984.6,2825.3h-1.8v-6.6c2.2-0.4,3.9-2.4,3.9-4.8c0-2.7-2.2-4.9-4.9-4.9c-2.7,0-4.9,2.2-4.9,4.9
		c0,2.4,1.7,4.3,3.9,4.8v6.6h-5.1v-14.6c0-1.4-1.1-2.6-2.6-2.6h-14.9c-1.7-7.1-10.1-12.4-20-12.4s-18.3,5.3-20,12.4h-14.9
		c-1.4,0-2.6,1.1-2.6,2.6v36c0,1.4,1.1,2.6,2.6,2.6h69.9c1.4,0,2.6-1.1,2.6-2.6v-11.8h8.8c1.8,0,3.2-1.3,3.2-2.9v-3.9
		C-1981.4,2826.6-1982.8,2825.3-1984.6,2825.3z M-1990.3,2813.9c0-1.6,1.3-3,3-3c1.6,0,3,1.3,3,3c0,1.6-1.3,3-3,3
		C-1989,2816.9-1990.3,2815.5-1990.3,2813.9z M-1995.3,2846.7c0,0.4-0.3,0.7-0.7,0.7h-69.9c-0.4,0-0.7-0.3-0.7-0.7v-36
		c0-0.4,0.3-0.7,0.7-0.7h15.7c0.5,0,0.9-0.3,0.9-0.8c1.1-6.6,9-11.6,18.3-11.6c9.4,0,17.2,5,18.3,11.6c0.1,0.5,0.5,0.8,0.9,0.8h15.7
		c0.4,0,0.7,0.3,0.7,0.7L-1995.3,2846.7L-1995.3,2846.7z M-1983.3,2832.1c0,0.5-0.6,1-1.3,1h-8.4v-5.9h4.7v2.9
		c0,0.5,0.4,0.9,0.9,0.9c0.5,0,0.9-0.4,0.9-0.9v-2.9h1.8c0.7,0,1.3,0.4,1.3,1V2832.1z"/>
	<path d="M-2045.8,2827.6c-0.1-0.4-0.5-0.7-0.9-0.7c0,0,0,0,0,0l-2.7,0l-0.8-2.5c-0.2-0.8-1.5-0.8-1.8,0l-0.8,2.5l-2.7,0
		c0,0,0,0,0,0c-0.4,0-0.8,0.3-0.9,0.7c-0.1,0.4,0,0.8,0.3,1.1l2.2,1.6l-0.8,2.5c-0.1,0.4,0,0.8,0.3,1.1c0.3,0.2,0.8,0.2,1.1,0
		l2.2-1.6l2.2,1.6c0.2,0.1,0.4,0.2,0.6,0.2c0.2,0,0.4-0.1,0.6-0.2c0.3-0.2,0.5-0.7,0.3-1.1l-0.8-2.5l2.2-1.6
		C-2045.8,2828.4-2045.7,2828-2045.8,2827.6z"/>
	<path d="M-2035.6,2828.7l2.2,1.6l-0.8,2.5c-0.1,0.4,0,0.8,0.3,1.1c0.3,0.2,0.8,0.2,1.1,0l2.2-1.6l2.2,1.6c0.2,0.1,0.4,0.2,0.6,0.2
		c0.2,0,0.4-0.1,0.6-0.2c0.3-0.2,0.5-0.7,0.3-1.1l-0.8-2.5l2.2-1.6c0.3-0.2,0.5-0.7,0.3-1.1c-0.1-0.4-0.5-0.7-0.9-0.7c0,0,0,0,0,0
		l-2.7,0l-0.8-2.5c-0.2-0.8-1.5-0.8-1.8,0l-0.8,2.5l-2.7,0c0,0,0,0,0,0c-0.4,0-0.8,0.3-0.9,0.7
		C-2036.1,2828-2036,2828.4-2035.6,2828.7z"/>
	<path d="M-2012.9,2830.2l-0.8,2.5c-0.1,0.4,0,0.8,0.3,1.1c0.3,0.2,0.8,0.2,1.1,0l2.2-1.6l2.2,1.6c0.2,0.1,0.4,0.2,0.6,0.2
		c0.2,0,0.4-0.1,0.6-0.2c0.3-0.2,0.5-0.7,0.3-1.1l-0.8-2.5l2.2-1.6c0.3-0.2,0.5-0.7,0.3-1.1c-0.1-0.4-0.5-0.7-0.9-0.7c0,0,0,0,0,0
		l-2.7,0l-0.8-2.5c-0.2-0.8-1.5-0.8-1.8,0l-0.8,2.5l-2.7,0c0,0,0,0,0,0c-0.4,0-0.8,0.3-0.9,0.7c-0.1,0.4,0,0.8,0.3,1.1
		L-2012.9,2830.2z"/>
	<path d="M-2044.2,2809.9h27c0.5,0,0.9-0.4,0.9-0.9s-0.4-0.9-0.9-0.9h-27c-0.5,0-0.9,0.4-0.9,0.9
		C-2045.1,2809.5-2044.7,2809.9-2044.2,2809.9z"/>
	<path d="M-2034.6,2805.5h7.5c0.5,0,0.9-0.4,0.9-0.9c0-0.5-0.4-0.9-0.9-0.9h-7.5c-0.5,0-0.9,0.4-0.9,0.9
		C-2035.6,2805-2035.2,2805.5-2034.6,2805.5z"/>
</g>
</svg>
