<?xml version="1.0" encoding="utf-8"?>
<!-- Generator: Adobe Illustrator 19.1.0, SVG Export Plug-In . SVG Version: 6.00 Build 0)  -->
<svg version="1.1"
	 id="Layer_1" xmlns:rdf="http://www.w3.org/1999/02/22-rdf-syntax-ns#" xmlns:dc="http://purl.org/dc/elements/1.1/" xmlns:cc="http://creativecommons.org/ns#" xmlns:inkscape="http://www.inkscape.org/namespaces/inkscape" xmlns:sodipodi="http://sodipodi.sourceforge.net/DTD/sodipodi-0.dtd" xmlns:svg="http://www.w3.org/2000/svg"
	 xmlns="http://www.w3.org/2000/svg" xmlns:xlink="http://www.w3.org/1999/xlink" x="0px" y="0px" viewBox="-3119 1652.6 90 72"
	 style="enable-background:new -3119 1652.6 90 72;" xml:space="preserve">
<style type="text/css">
	.st0{fill:#FFFFFF;}
</style>
<g transform="translate(0,-952.36218)">
	<path d="M-3115.8,2604.9l-1.3,1.3c-2.7,2.7-2.7,6.9,0,9.6l38.3,38.3c2.7,2.7,6.9,2.7,9.6,0l38.3-38.3c1-1,1.6-2.2,1.9-3.5v-2.6
		c-0.2-1.3-0.9-2.5-1.9-3.5l-1.3-1.3h-12.2l2.2,2.2c2.1,2.1,2.1,5.5,0,7.6l-28.1,28.1c-2.1,2.1-5.5,2.1-7.6,0l-28.1-28.1
		c-2.1-2.1-2.1-5.5,0-7.6l2.2-2.2H-3115.8L-3115.8,2604.9z"/>
	<path class="st0" d="M-3119,2604.9v72h90v-72H-3119L-3119,2604.9z M-3107.8,2612.1h67.6c3.2,0,5.8,2.4,5.8,5.5v46.6
		c0,3-2.6,5.5-5.8,5.5h-67.6c-3.2,0-5.8-2.5-5.8-5.5v-46.6C-3113.6,2614.6-3111,2612.1-3107.8,2612.1z"/>
	<path d="M-3111.8,2604.9c-4,0-7.2,3.2-7.2,7.2v57.6c0,4,3.2,7.2,7.2,7.2h75.6c4,0,7.2-3.2,7.2-7.2v-57.6c0-4-3.2-7.2-7.2-7.2
		H-3111.8L-3111.8,2604.9z M-3104.5,2613.6h61.1c3.2,0,5.8,2.4,5.8,5.5v43.8c0,3-2.6,5.5-5.8,5.5h-61.1c-3.2,0-5.8-2.5-5.8-5.5V2619
		C-3110.4,2616-3107.8,2613.6-3104.5,2613.6L-3104.5,2613.6z"/>
</g>
</svg>
