<?xml version="1.0" encoding="utf-8"?>
<!-- Generator: Adobe Illustrator 19.1.0, SVG Export Plug-In . SVG Version: 6.00 Build 0)  -->
<svg version="1.1" id="Layer_1" xmlns="http://www.w3.org/2000/svg" xmlns:xlink="http://www.w3.org/1999/xlink" x="0px" y="0px"
	 viewBox="-3158 1684.6 32 32" style="enable-background:new -3158 1684.6 32 32;" xml:space="preserve">
<style type="text/css">
	.st0{fill:#231F20;}
</style>
<path class="st0" d="M-3130,1686.6c1.1,0,2,0.9,2,2v20c0,1.1-0.9,2-2,2h-7v-18c0-1.7-1.3-3-3-3h-6v-1c0-1.1,0.9-2,2-2H-3130
	 M-3140,1690.6c1.1,0,2,0.9,2,2v20c0,1.1-0.9,2-2,2h-14c-1.1,0-2-0.9-2-2v-20c0-1.1,0.9-2,2-2H-3140 M-3147,1699.5
	c-0.4-0.9-1.3-1.5-2.4-1.5c-1.5,0-2.6,1.6-2.6,3.1c0,2.9,5,5.9,5,5.9s5-3.2,5-5.9c0-1.4-1.2-3.1-2.6-3.1
	C-3145.7,1698.1-3146.6,1698.7-3147,1699.5 M-3130,1684.6h-14c-2.2,0-4,1.8-4,4h-6c-2.2,0-4,1.8-4,4v20c0,2.2,1.8,4,4,4h14
	c2.2,0,4-1.8,4-4h6c2.2,0,4-1.8,4-4v-20C-3126,1686.4-3127.8,1684.6-3130,1684.6"/>
</svg>
