<?xml version="1.0" encoding="utf-8"?>
<!-- Generator: Adobe Illustrator 19.1.0, SVG Export Plug-In . SVG Version: 6.00 Build 0)  -->
<svg version="1.1" id="Layer_1" xmlns="http://www.w3.org/2000/svg" xmlns:xlink="http://www.w3.org/1999/xlink" x="0px" y="0px"
	 viewBox="0 0 79.9 65.8" style="enable-background:new 0 0 79.9 65.8;" xml:space="preserve">
<style type="text/css">
	.st0{fill:#010101;}
</style>
<g>
	<path class="st0" d="M44.7,14.2C44.7,14.2,44.7,14.2,44.7,14.2C44.7,14.2,44.7,14.2,44.7,14.2z"/>
	<path class="st0" d="M78.2,28.7l-27-27c-2.3-2.3-6.1-2.3-8.4,0c-2.3,2.3-2.3,6.1,0,8.4L59.6,27H5.9C2.7,27,0,29.6,0,32.9
		s2.7,5.9,5.9,5.9h53.7L42.8,55.6c-2.3,2.3-2.3,6.1,0,8.4c1.2,1.2,2.7,1.7,4.2,1.7s3-0.6,4.2-1.7l27-27C80.5,34.8,80.5,31,78.2,28.7
		z"/>
</g>
</svg>
