<?xml version="1.0" encoding="utf-8"?>
<!-- Generator: Adobe Illustrator 17.1.0, SVG Export Plug-In . SVG Version: 6.00 Build 0)  -->
<!DOCTYPE svg PUBLIC "-//W3C//DTD SVG 1.1//EN" "http://www.w3.org/Graphics/SVG/1.1/DTD/svg11.dtd">
<svg version="1.1" id="Layer_1" xmlns="http://www.w3.org/2000/svg" xmlns:xlink="http://www.w3.org/1999/xlink" x="0px" y="0px"
	 viewBox="0 0 32 32" enable-background="new 0 0 32 32" xml:space="preserve">
<g>
	<defs>
		<rect id="SVGID_1_" width="32" height="32"/>
	</defs>
	<clipPath id="SVGID_2_">
		<use xlink:href="#SVGID_1_"  overflow="visible"/>
	</clipPath>
	<path clip-path="url(#SVGID_2_)" fill="#231F20" d="M31.962,6.574c-0.143-0.664-0.612-1.21-1.247-1.45l-2.778-1.052l-1.053-2.78
		c-0.24-0.635-0.786-1.105-1.45-1.247C25.294,0.015,25.153,0,25.014,0c-0.526,0-1.035,0.207-1.415,0.586l-3.377,3.379
		c-0.556,0.556-0.734,1.386-0.455,2.122l0.439,1.161C19.647,7.083,19.075,7,18.497,7c-1.863,0-3.635,0.693-4.989,1.877
		C12.153,7.693,10.383,7,8.521,7c-3.547,0-7.515,3.611-7.515,8.444c0,1.758,0.645,3.61,1.921,5.533
		c-0.077-0.005-0.151-0.008-0.219-0.008c-1.301,0-2.701,1.002-2.701,3.203V30c0,1.104,0.895,2,2,2h5.829
		c2.073,0,2.795-1.202,3.01-1.719c0.122-0.295,0.285-0.865,0.13-1.573c0.86,0.606,1.43,0.962,1.477,0.991
		c0.323,0.2,0.69,0.301,1.055,0.301c0.374,0,0.748-0.105,1.076-0.315c1.169-0.746,11.422-7.486,11.422-14.241
		c0-1.152-0.268-2.342-0.762-3.459l0.679,0.257c0.229,0.087,0.469,0.129,0.707,0.129c0.521,0,1.032-0.204,1.414-0.586l3.377-3.377
		C31.901,7.929,32.105,7.237,31.962,6.574 M7.836,30H2.007v-5.828c0-0.785,0.277-1.203,0.701-1.203c0.269,0,0.596,0.168,0.947,0.519
		l2.079,2.078l5.919-5.92c0.19-0.189,0.518-0.189,0.707,0c0.196,0.196,0.196,0.512,0,0.707l-5.919,5.92l2.078,2.078
		C9.425,29.258,9.117,30,7.836,30 M13.508,28c0,0-1.995-1.244-4.242-3.138l3.801-3.802c0.585-0.584,0.585-1.536,0-2.121
		c-0.566-0.566-1.554-0.566-2.121,0l-3.889,3.89c-2.168-2.195-4.051-4.827-4.051-7.385C3.006,12.473,5.476,9,8.521,9
		c2.205,0,4.106,1.275,4.987,3.106C14.388,10.275,16.289,9,18.497,9c0.556,0,1.088,0.129,1.593,0.338
		c1.186,0.487,2.199,1.477,2.9,2.662h0.011c0.631,1.07,1.005,2.294,1.005,3.444C24.006,21.298,13.508,28,13.508,28 M26.63,10.371
		l-2.597-0.982h-0.001l-0.977,0.977c-0.437-0.519-0.933-0.976-1.479-1.349l1.043-1.043l-0.982-2.595L25.014,2l1.371,3.623
		l3.622,1.371L26.63,10.371z"/>
</g>
</svg>
