<?xml version="1.0" encoding="utf-8"?>
<!-- Generator: Adobe Illustrator 19.1.0, SVG Export Plug-In . SVG Version: 6.00 Build 0)  -->
<svg version="1.1" id="Layer_1" xmlns="http://www.w3.org/2000/svg" xmlns:xlink="http://www.w3.org/1999/xlink" x="0px" y="0px"
	 viewBox="-3130 1632.1 114 115" style="enable-background:new -3130 1632.1 114 115;" xml:space="preserve">
<g>
	<g>
		<path d="M-3112.9,1641.6h77.6c6.2,0,11.1,4.9,11.1,11c0,6.1-4.9,10.9-11.1,10.9h-77.6c-6.1,0-11.1-4.8-11.1-10.9
			C-3124,1646.5-3119,1641.6-3112.9,1641.6L-3112.9,1641.6z"/>
		<path d="M-3112.7,1678.1h77.6c6.1,0,11.1,4.8,11.1,10.9c0,6.1-5,11-11.1,11h-77.6c-6.2,0-11.1-4.9-11.1-11
			C-3123.8,1683-3118.9,1678.1-3112.7,1678.1L-3112.7,1678.1z"/>
		<path d="M-3112.8,1714.6h77.6c6.2,0,11.1,4.9,11.1,11c0,6-4.9,10.9-11.1,10.9h-77.6c-6.2,0-11.1-4.9-11.1-10.9
			C-3123.9,1719.5-3119,1714.6-3112.8,1714.6L-3112.8,1714.6z"/>
	</g>
</g>
</svg>
