<svg xmlns="http://www.w3.org/2000/svg" xmlns:xlink="http://www.w3.org/1999/xlink" preserveAspectRatio="xMidYMid" width="29" height="29" viewBox="0 0 29 29">
  <defs>
    <style>
      .cls-1 {
        fill: #4d4d4d;
        filter: url(#color-overlay-1);
        fill-rule: evenodd;
      }
    </style>

    <filter id="color-overlay-1" filterUnits="userSpaceOnUse">
      <feFlood flood-color="#fff"/>
      <feComposite operator="in" in2="SourceGraphic"/>
      <feBlend in2="SourceGraphic" result="solidFill"/>
    </filter>
  </defs>
  <path d="M14.500,29.010 C22.507,29.010 29.000,22.518 29.000,14.511 C29.000,6.504 22.507,0.012 14.500,0.012 C6.492,0.012 -0.001,6.504 -0.001,14.511 C-0.001,22.518 6.492,29.010 14.500,29.010 ZM14.500,2.731 C20.996,2.731 26.281,8.015 26.281,14.511 C26.281,21.007 20.996,26.292 14.500,26.292 C8.003,26.292 2.718,21.007 2.718,14.511 C2.718,8.015 8.003,2.731 14.500,2.731 ZM15.846,20.497 L15.849,20.493 C16.092,20.716 16.411,20.854 16.765,20.854 C17.515,20.854 18.124,20.246 18.124,19.495 C18.124,19.099 17.952,18.745 17.681,18.497 L17.684,18.493 L13.339,14.511 L17.684,10.529 L17.681,10.525 C17.952,10.277 18.124,9.924 18.124,9.527 C18.124,8.777 17.515,8.168 16.765,8.168 C16.411,8.168 16.092,8.306 15.849,8.529 L15.846,8.525 L10.409,13.509 C10.128,13.767 9.968,14.130 9.968,14.511 C9.968,14.893 10.128,15.256 10.409,15.513 L15.846,20.497 Z" class="cls-1"/>
</svg>
