<?xml version="1.0" encoding="utf-8"?>
<!-- Generator: Adobe Illustrator 17.1.0, SVG Export Plug-In . SVG Version: 6.00 Build 0)  -->
<!DOCTYPE svg PUBLIC "-//W3C//DTD SVG 1.1//EN" "http://www.w3.org/Graphics/SVG/1.1/DTD/svg11.dtd">
<svg version="1.1" id="Layer_1" xmlns="http://www.w3.org/2000/svg" xmlns:xlink="http://www.w3.org/1999/xlink" x="0px" y="0px"
	 viewBox="0 0 32 32" enable-background="new 0 0 32 32" xml:space="preserve">
<g>
	<defs>
		<rect id="SVGID_1_" width="32" height="32"/>
	</defs>
	<clipPath id="SVGID_2_">
		<use xlink:href="#SVGID_1_"  overflow="visible"/>
	</clipPath>
	<path clip-path="url(#SVGID_2_)" fill="#231F20" d="M16,2c2.209,0,4,1.791,4,4c0,1.862-1.278,3.413-3,3.859V17.5
		c0,0.276-0.448,0.5-1,0.5c-0.552,0-1-0.224-1-0.5V9.859C13.278,9.413,12,7.862,12,6C12,3.791,13.791,2,16,2 M16,5.555
		c0.736,0,1.333-0.597,1.333-1.333S16.736,2.889,16,2.889c-0.736,0-1.333,0.597-1.333,1.333S15.264,5.555,16,5.555 M27,11
		c1.65,0,3,1.35,3,3v8c0,1.65-1.35,3-3,3H5c-1.65,0-3-1.35-3-3v-8c0-1.65,1.35-3,3-3h9v4.211c-1.764,0.386-3,1.264-3,2.289
		c0,1.381,2.239,2.5,5,2.5s5-1.119,5-2.5c0-1.025-1.236-1.903-3-2.289V11H27 M7,22c1.105,0,2-0.672,2-1.5S8.105,19,7,19
		s-2,0.672-2,1.5S5.895,22,7,22 M30,24.618V27c0,1.65-1.35,3-3,3H5c-1.65,0-3-1.35-3-3v-2.382C2.734,25.457,3.8,26,5,26h22
		C28.2,26,29.266,25.457,30,24.618 M16,0c-3.308,0-6,2.692-6,6c0,1.082,0.292,2.111,0.809,3H5c-2.757,0-5,2.243-5,5v8
		c0,0.566,0.094,1.11,0.268,1.617C0.096,23.915,0,24.258,0,24.618V27c0,2.757,2.243,5,5,5h22c2.757,0,5-2.243,5-5v-2.382
		c0-0.36-0.096-0.703-0.268-1.001C31.906,23.11,32,22.566,32,22v-8c0-2.757-2.243-5-5-5h-5.809C21.708,8.111,22,7.082,22,6
		C22,2.692,19.308,0,16,0"/>
</g>
</svg>
