<?xml version="1.0" encoding="utf-8"?>
<!-- Generator: Adobe Illustrator 19.1.0, SVG Export Plug-In . SVG Version: 6.00 Build 0)  -->
<svg version="1.1"
	 id="Layer_1" xmlns:rdf="http://www.w3.org/1999/02/22-rdf-syntax-ns#" xmlns:dc="http://purl.org/dc/elements/1.1/" xmlns:cc="http://creativecommons.org/ns#" xmlns:inkscape="http://www.inkscape.org/namespaces/inkscape" xmlns:sodipodi="http://sodipodi.sourceforge.net/DTD/sodipodi-0.dtd" xmlns:svg="http://www.w3.org/2000/svg"
	 xmlns="http://www.w3.org/2000/svg" xmlns:xlink="http://www.w3.org/1999/xlink" x="0px" y="0px" viewBox="-6248.1 3317.1 90.1 72"
	 style="enable-background:new -6248.1 3317.1 90.1 72;" xml:space="preserve">
<path d="M-6159.9,3318.4l-1.3-1.3h-4h-8.2h-59.4h-8h-4l-1.3,1.3c-1.7,1.7-2.3,4-1.9,6.1v57.4c0,4,3.2,7.2,7.2,7.2h75.6
	c4,0,7.2-3.2,7.2-7.2v-57.4v-0.2v-2.4C-6158.2,3320.6-6158.9,3319.4-6159.9,3318.4z M-6172.4,3325.8c0.7,0,1.3,0.1,1.9,0.3
	c-0.2,0.3-0.4,0.6-0.7,0.8l-28.1,28.1c-2.1,2.1-5.5,2.1-7.6,0l-28.1-28.1c-0.2-0.2-0.4-0.5-0.6-0.7c0.7-0.2,1.4-0.4,2.1-0.4H-6172.4
	z M-6172.4,3380.6h-61.1c-3.2,0-5.8-2.5-5.8-5.5v-40.3l31.5,31.5c2.7,2.7,6.9,2.7,9.6,0l31.6-31.6v40.4
	C-6166.6,3378.1-6169.2,3380.6-6172.4,3380.6z"/>
</svg>
