<?xml version="1.0" encoding="utf-8"?>
<!-- Generator: Adobe Illustrator 19.1.0, SVG Export Plug-In . SVG Version: 6.00 Build 0)  -->
<svg version="1.1" id="Layer_1" xmlns="http://www.w3.org/2000/svg" xmlns:xlink="http://www.w3.org/1999/xlink" x="0px" y="0px"
	 viewBox="-3158 1684.6 32 32" style="enable-background:new -3158 1684.6 32 32;" xml:space="preserve">
<style type="text/css">
	.st0{fill:#231F20;}
</style>
<path class="st0" d="M-3142,1686.6c2.2,0,4,1.8,4,4c0,1.9-1.3,3.4-3,3.9v7.6c0,0.3-0.4,0.5-1,0.5s-1-0.2-1-0.5v-7.6
	c-1.7-0.4-3-2-3-3.9C-3146,1688.4-3144.2,1686.6-3142,1686.6 M-3142,1690.1c0.7,0,1.3-0.6,1.3-1.3s-0.6-1.3-1.3-1.3
	s-1.3,0.6-1.3,1.3S-3142.7,1690.1-3142,1690.1 M-3131,1695.6c1.6,0,3,1.4,3,3v8c0,1.7-1.4,3-3,3h-22c-1.6,0-3-1.3-3-3v-8
	c0-1.6,1.4-3,3-3h9v4.2c-1.8,0.4-3,1.3-3,2.3c0,1.4,2.2,2.5,5,2.5s5-1.1,5-2.5c0-1-1.2-1.9-3-2.3v-4.2H-3131 M-3151,1706.6
	c1.1,0,2-0.7,2-1.5s-0.9-1.5-2-1.5s-2,0.7-2,1.5S-3152.1,1706.6-3151,1706.6 M-3128,1709.2v2.4c0,1.7-1.4,3-3,3h-22
	c-1.6,0-3-1.3-3-3v-2.4c0.7,0.8,1.8,1.4,3,1.4h22C-3129.8,1710.6-3128.7,1710-3128,1709.2 M-3142,1684.6c-3.3,0-6,2.7-6,6
	c0,1.1,0.3,2.1,0.8,3h-5.8c-2.8,0-5,2.2-5,5v8c0,0.6,0.1,1.1,0.3,1.6c-0.2,0.3-0.3,0.6-0.3,1v2.4c0,2.8,2.2,5,5,5h22
	c2.8,0,5-2.2,5-5v-2.4c0-0.4-0.1-0.7-0.3-1c0.2-0.5,0.3-1.1,0.3-1.6v-8c0-2.8-2.2-5-5-5h-5.8c0.5-0.9,0.8-1.9,0.8-3
	C-3136,1687.3-3138.7,1684.6-3142,1684.6"/>
</svg>
