<svg xmlns="http://www.w3.org/2000/svg" xmlns:xlink="http://www.w3.org/1999/xlink" preserveAspectRatio="xMidYMid" width="29" height="29" viewBox="0 0 29 29">
  <defs>
    <style>
      .cls-1 {
        fill: #4d4d4d;
        filter: url(#color-overlay-1);
        fill-rule: evenodd;
      }
    </style>

    <filter id="color-overlay-1" filterUnits="userSpaceOnUse">
      <feFlood flood-color="#fff"/>
      <feComposite operator="in" in2="SourceGraphic"/>
      <feBlend in2="SourceGraphic" result="solidFill"/>
    </filter>
  </defs>
  <path d="M14.502,29.010 C6.495,29.010 0.002,22.518 0.002,14.511 C0.002,6.504 6.495,0.012 14.502,0.012 C22.510,0.012 29.002,6.504 29.002,14.511 C29.002,22.518 22.510,29.010 14.502,29.010 ZM14.502,2.731 C8.006,2.731 2.721,8.015 2.721,14.511 C2.721,21.007 8.006,26.292 14.502,26.292 C20.998,26.292 26.284,21.007 26.284,14.511 C26.284,8.015 20.998,2.731 14.502,2.731 ZM13.156,20.497 L13.153,20.493 C12.910,20.716 12.591,20.854 12.237,20.854 C11.486,20.854 10.877,20.246 10.877,19.495 C10.877,19.099 11.050,18.745 11.321,18.497 L11.318,18.493 L15.663,14.511 L11.318,10.529 L11.321,10.525 C11.050,10.277 10.877,9.924 10.877,9.527 C10.877,8.777 11.486,8.168 12.237,8.168 C12.591,8.168 12.910,8.306 13.153,8.529 L13.156,8.525 L18.593,13.509 C18.873,13.767 19.034,14.130 19.034,14.511 C19.034,14.893 18.873,15.256 18.593,15.513 L13.156,20.497 Z" class="cls-1"/>
</svg>
